<?xml version="1.0" encoding="utf-8"?>
<!-- Svg Vector Icons : http://www.onlinewebfonts.com/icon -->
<!DOCTYPE svg PUBLIC "-//W3C//DTD SVG 1.1//EN" "http://www.w3.org/Graphics/SVG/1.1/DTD/svg11.dtd">
<svg version="1.1" xmlns="http://www.w3.org/2000/svg" xmlns:xlink="http://www.w3.org/1999/xlink" x="0px" y="0px" viewBox="0 0 256 256" enable-background="new 0 0 256 256" xml:space="preserve">
<metadata> Svg Vector Icons : http://www.onlinewebfonts.com/icon </metadata>
<g><g><path fill="#000000" d="M189.3,174c-7.9-5.9-16.5-10.6-25.5-14c4.7-2.9,9.1-6.3,13.1-10.3c13.1-13.1,20.3-30.5,20.3-49c0-0.2,0-0.5,0-0.7c3.5-2.7,6.3-6.5,6.3-11.5V64.2L246,52.1L128,18.5L10,52.1l17,4.8c0,0,0,0,0,0.1v54.4c0,4.6,3.7,8.3,8.3,8.3c4.6,0,8.3-3.7,8.3-8.3V61.6l8.8,2.5v24.4c0,5,2.8,8.8,6.3,11.5c0,0.2,0,0.5,0,0.7c0,18.5,7.2,35.9,20.3,49c4,4,8.3,7.4,13,10.2c-9,3.4-17.7,8.1-25.6,14c-17.6,13.1-30.9,31.1-38.6,52.3c-1.6,4.3,0.7,9.1,5,10.7c4.3,1.6,9.1-0.7,10.7-5c6.6-18.1,18-33.5,32.9-44.6c15.2-11.3,33-17.2,51.5-17.2c18.5,0,36.3,6,51.5,17.2c14.9,11.1,26.3,26.5,32.9,44.6c1.2,3.4,4.4,5.5,7.8,5.5c0.9,0,1.9-0.2,2.9-0.5c4.3-1.6,6.6-6.4,5-10.7C220.2,205.2,206.8,187.1,189.3,174L189.3,174z M128,96.7c-3.7,0-7.2-0.1-10.5-0.2c-18.5-1.6-35.4-7.2-46-12.5c-0.7-0.4-1.5-0.6-2.4-0.8V71.9l56.6,15.9c1.5,0.4,3,0.4,4.5,0l56.6-15.9v11.5c-0.8,0.1-1.6,0.4-2.4,0.8c-10.6,5.3-27.5,10.8-46,12.5C135.2,96.7,131.7,96.7,128,96.7L128,96.7z M128,35.8l57,16.2l-57,16.2L71,52.1L128,35.8L128,35.8z M75.9,107.6c10.6,2.9,24.6,4.8,39.9,5.5c3.9,0.3,8,0.5,12.2,0.5c4.2,0,8.3-0.2,12.2-0.5c15.3-0.7,29.3-2.6,39.9-5.5c-3.4,25.7-25.5,45.7-52.1,45.7S79.3,133.4,75.9,107.6L75.9,107.6z"/></g></g>
</svg>